<svg width="35" height="35" viewBox="0 0 35 35" fill="none" xmlns="http://www.w3.org/2000/svg">
<path d="M21.4998 8.50001C21.1944 8.81156 21.0233 9.23042 21.0233 9.66667C21.0233 10.1029 21.1944 10.5218 21.4998 10.8333L24.1664 13.5C24.478 13.8054 24.8968 13.9764 25.3331 13.9764C25.7693 13.9764 26.1882 13.8054 26.4998 13.5L32.7831 7.21667C33.6211 9.06866 33.8749 11.1321 33.5105 13.1319C33.1461 15.1318 32.1809 16.9731 30.7436 18.4105C29.3062 19.8479 27.4649 20.8131 25.465 21.1774C23.4651 21.5418 21.4017 21.2881 19.5498 20.45L8.03309 31.9667C7.37005 32.6297 6.47077 33.0022 5.53309 33.0022C4.59541 33.0022 3.69613 32.6297 3.03309 31.9667C2.37005 31.3036 1.99756 30.4044 1.99756 29.4667C1.99756 28.529 2.37005 27.6297 3.03309 26.9667L14.5498 15.45C13.7117 13.598 13.458 11.5346 13.8223 9.53477C14.1867 7.53491 15.1519 5.6936 16.5893 4.25621C18.0267 2.81882 19.868 1.85362 21.8678 1.48924C23.8677 1.12487 25.9311 1.37861 27.7831 2.21667L21.5164 8.48334L21.4998 8.50001Z" stroke="#3C64B1" stroke-width="2" stroke-linecap="round" stroke-linejoin="round"/>
</svg>
