<svg width="21" height="20" viewBox="0 0 21 20" fill="none" xmlns="http://www.w3.org/2000/svg">
<path d="M10.3464 11.8529C9.79408 11.8529 9.34636 11.4052 9.34636 10.8529V7.85291C9.34636 7.30062 9.79408 6.85291 10.3464 6.85291C10.8986 6.85291 11.3464 7.30062 11.3464 7.85291V10.8529C11.3464 11.4052 10.8986 11.8529 10.3464 11.8529Z" fill="#FF0000"/>
<path d="M8.84636 14.3529C8.84636 13.5245 9.51793 12.8529 10.3464 12.8529C11.1748 12.8529 11.8464 13.5245 11.8464 14.3529C11.8464 15.1813 11.1748 15.8529 10.3464 15.8529C9.51793 15.8529 8.84636 15.1813 8.84636 14.3529Z" fill="#FF0000"/>
<path d="M8.57652 1.06851C9.32635 -0.356164 11.3664 -0.356174 12.1162 1.06851L20.4598 16.9214C21.1608 18.2532 20.195 19.8529 18.69 19.8529H2.00273C0.497706 19.8529 -0.46807 18.2532 0.232889 16.9214L8.57652 1.06851ZM18.69 17.8529L10.3464 2L2.00273 17.8529L18.69 17.8529Z" fill="#FF0000"/>
</svg>
